<?xml version="1.0" encoding="utf-8"?>
<!-- Generator: Adobe Illustrator 16.0.0, SVG Export Plug-In . SVG Version: 6.00 Build 0)  -->
<!DOCTYPE svg PUBLIC "-//W3C//DTD SVG 1.1//EN" "http://www.w3.org/Graphics/SVG/1.1/DTD/svg11.dtd">
<svg version="1.1" id="Layer_1" xmlns="http://www.w3.org/2000/svg" xmlns:xlink="http://www.w3.org/1999/xlink" x="0px" y="0px"
	 width="900px" height="300px" viewBox="0 0 900 300" enable-background="new 0 0 900 300" xml:space="preserve">
<path fill="#0461A6" d="M28.125,0.059c3.189-0.196,6.412,0.1,9.505,0.916c5.189,1.352,9.983,4.146,13.747,7.961
	c3.245,3.292,5.727,7.336,7.155,11.734c1.372,4.201,1.799,8.705,1.25,13.09c-0.721,5.862-3.247,11.479-7.13,15.927
	c-3.28,3.779-7.519,6.725-12.216,8.454c-3.45,1.281-7.139,1.91-10.818,1.856c-4.48-0.038-8.947-1.118-12.956-3.118
	c-4.453-2.208-8.338-5.543-11.197-9.607c-1.682-2.383-3.014-5.013-3.931-7.78c-2.121-6.338-2.045-13.387,0.237-19.671
	c1.626-4.512,4.357-8.619,7.884-11.867c3.616-3.35,8.07-5.786,12.846-7.006C24.342,0.472,26.228,0.176,28.125,0.059z"/>
<path fill="#FCFDFE" d="M25.88,4.753c0.852-0.343,1.801-0.415,2.701-0.252c0.014,0.456,0.03,0.911,0.053,1.367
	c-0.597-0.111-1.22-0.09-1.806,0.069c-0.278,0.074-0.551,0.212-0.729,0.444c-0.17,0.226-0.235,0.514-0.25,0.791
	c-0.027,0.514,0.054,1.024,0.153,1.526c0.093,0.418,0.216,0.851,0.504,1.181c0.227,0.254,0.575,0.362,0.908,0.369
	c0.641-0.003,1.268-0.197,1.83-0.501c0.121,0.406,0.234,0.816,0.351,1.226c-0.813,0.533-1.812,0.767-2.778,0.675
	c-0.526-0.062-1.051-0.267-1.433-0.644c-0.598-0.562-0.871-1.374-1.033-2.159c-0.176-0.911-0.257-1.9,0.124-2.771
	C24.733,5.46,25.271,4.998,25.88,4.753z"/>
<path fill="#FCFDFE" d="M31.104,4.425c0.529,0.061,1.062,0.077,1.591,0.128c-0.18,2.31-0.333,4.62-0.513,6.931
	c-0.535-0.029-1.067-0.073-1.6-0.111C30.769,9.058,30.907,6.739,31.104,4.425z"/>
<path fill="#FCFDFE" d="M35.727,4.922c0.435,0.12,0.857,0.281,1.281,0.435c0.459,1.643,0.897,3.291,1.37,4.928
	c0.393-1.343,0.908-2.646,1.344-3.976c0.446,0.124,0.88,0.295,1.319,0.446c-0.761,2.191-1.511,4.388-2.29,6.573
	c-0.342-0.127-0.689-0.236-1.031-0.36c-0.505-1.734-1.019-3.465-1.512-5.201c-0.437,1.401-0.968,2.772-1.418,4.169
	c-0.448-0.121-0.877-0.303-1.318-0.44c0.254-0.871,0.586-1.719,0.875-2.58C34.804,7.583,35.279,6.257,35.727,4.922z"/>
<path fill="#FCFDFE" d="M17.007,7.837c1.39-0.645,2.764-1.323,4.156-1.965c0.199,0.417,0.419,0.824,0.61,1.245
	c-0.911,0.43-1.818,0.868-2.731,1.295c0.153,0.398,0.352,0.775,0.536,1.159c0.036,0.104,0.147,0.025,0.213,0.006
	c0.717-0.335,1.422-0.694,2.147-1.011c0.18,0.373,0.364,0.744,0.531,1.123c-0.768,0.362-1.53,0.733-2.3,1.089
	c0.193,0.489,0.442,0.954,0.663,1.433c0.962-0.455,1.92-0.92,2.885-1.37c0.189,0.417,0.378,0.833,0.555,1.255
	c-1.421,0.678-2.847,1.346-4.263,2.034C18.991,12.041,18.004,9.937,17.007,7.837z"/>
<path fill="#FCFDFE" d="M43.082,9.34c0.57-0.383,1.332-0.364,1.94-0.085c0.88,0.413,1.607,1.124,2.11,1.95
	c-0.314,0.281-0.593,0.603-0.916,0.873c-0.145,0.018-0.203-0.19-0.295-0.276c-0.355-0.461-0.774-0.885-1.285-1.173
	c-0.246-0.144-0.605-0.196-0.819,0.032c-0.227,0.198-0.191,0.54-0.058,0.781c0.364,0.704,0.953,1.307,1.115,2.105
	c0.105,0.448-0.007,0.928-0.26,1.308c-0.357,0.558-0.951,1.004-1.631,1.037c-0.805,0.05-1.546-0.376-2.133-0.887
	c-0.471-0.422-0.895-0.925-1.129-1.517c0.307-0.33,0.635-0.642,0.973-0.94c0.364,0.759,0.911,1.482,1.691,1.847
	c0.369,0.197,0.867-0.034,0.951-0.441c0.028-0.315-0.156-0.597-0.31-0.857c-0.394-0.623-0.874-1.246-0.934-2.007
	C42.054,10.379,42.503,9.719,43.082,9.34z"/>
<path fill="#FCFDFE" d="M14.301,10.43c0.809-0.081,1.562,0.351,2.15,0.866c0.643,0.583,1.253,1.237,1.611,2.038
	c0.236,0.518,0.301,1.12,0.132,1.668c-0.175,0.548-0.528,1.021-0.938,1.416c-0.664,0.643-1.344,1.269-2.014,1.905
	c-1.59-1.69-3.197-3.367-4.77-5.073c0.519-0.487,1.035-0.979,1.556-1.465C12.658,11.165,13.382,10.521,14.301,10.43z"/>
<path fill="#0461A6" d="M13.662,12.224c0.263-0.193,0.614-0.309,0.932-0.185c0.483,0.172,0.847,0.554,1.197,0.912
	c0.303,0.324,0.606,0.661,0.807,1.062c0.122,0.243,0.199,0.533,0.096,0.797c-0.159,0.439-0.554,0.719-0.871,1.037
	c-0.139,0.108-0.241,0.285-0.404,0.349c-0.96-0.979-1.883-1.993-2.83-2.984C12.938,12.875,13.271,12.514,13.662,12.224z"/>
<path fill="#FCFDFE" d="M22.091,17.585c2.334-1.488,5.086-2.309,7.854-2.342c2.684-0.049,5.378,0.636,7.709,1.971
	c2.02,1.148,3.773,2.771,5.066,4.703c0.21,0.29-0.062,0.728-0.409,0.694c-0.258-0.011-0.387-0.251-0.515-0.438
	c-1.38-1.965-3.269-3.567-5.43-4.613c-2.592-1.266-5.574-1.689-8.42-1.239c-2.967,0.459-5.763,1.909-7.87,4.045
	c-2.216,2.232-3.658,5.218-4.01,8.345c-0.333,2.845,0.216,5.788,1.571,8.312c1.162,2.187,2.909,4.057,5.006,5.37
	c2.271,1.433,4.957,2.188,7.641,2.163c2.577-0.006,5.172-0.659,7.369-2.024c2.304-1.419,4.135-3.552,5.295-5.988
	c0.751-1.524,1.112-3.194,1.605-4.81c-0.721-0.106-1.448-0.205-2.178-0.183c-0.298,0.027-0.652,0.041-0.843,0.309
	c-0.898,1.057-2.052,1.961-3.417,2.3c-0.716,0.197-1.462,0.155-2.194,0.218c-0.489,0.023-0.979,0.044-1.468,0.078
	c0.436,1.132,0.756,2.338,0.685,3.561c-0.055,0.883-0.35,1.778-0.97,2.427c-0.494,0.54-1.165,0.886-1.859,1.089
	c-0.461,0.149-0.953,0.096-1.427,0.146c-1.505,0.078-3.009,0.179-4.514,0.249c0.241-0.95,0.414-1.93,0.361-2.912
	c-0.069-1.342-0.139-2.684-0.212-4.025c-1.096,0.049-2.19,0.128-3.286,0.16c-1.379,0.036-2.728-0.825-3.282-2.087
	c-0.474-0.981-0.351-2.1-0.452-3.153c-0.046-1.174-0.138-2.348-0.172-3.523c0.733,0.548,1.666,0.8,2.575,0.765
	c1.409-0.077,2.818-0.158,4.228-0.221c-0.054-1.422-0.151-2.843-0.213-4.266c-0.035-0.516-0.018-1.048-0.209-1.537
	c-0.162-0.467-0.433-0.885-0.731-1.275c2.012-0.109,4.023-0.239,6.036-0.335c0.673-0.03,1.359,0.167,1.89,0.588
	c0.779,0.628,1.216,1.594,1.38,2.562c0.07,0.951,0.103,1.904,0.161,2.855c0.038,0.341-0.033,0.687-0.229,0.972
	c0.376,0.011,0.765-0.07,1.08-0.283c0.764-0.531,1.641-0.915,2.565-1.047c0.718-0.079,1.46-0.039,2.142,0.219
	c1.088,0.387,2.008,1.227,2.492,2.275c0.272,0.568,0.375,1.203,0.376,1.83c0.757,0.317,1.488,0.802,1.908,1.524
	c0.421-1.34,0.88-2.696,1.674-3.869c0.846-1.257,2.188-2.133,3.643-2.514c0.312-0.034,0.586,0.332,0.449,0.618
	c-0.071,0.229-0.327,0.281-0.523,0.352c-0.933,0.312-1.815,0.824-2.451,1.584c-0.8,0.939-1.258,2.105-1.653,3.257
	c-0.451,1.35-0.824,2.723-1.225,4.087c-0.766,2.618-2.206,5.046-4.176,6.938c-1.769,1.693-3.976,2.922-6.353,3.515
	c-2.727,0.682-5.645,0.655-8.342-0.154c-2.516-0.755-4.824-2.186-6.625-4.096c-1.53-1.618-2.7-3.576-3.386-5.695
	c-1.046-3.201-0.981-6.756,0.191-9.914C17.13,22.029,19.312,19.343,22.091,17.585z"/>
<path fill="#FCFDFE" d="M6.233,16.818c0.339-0.508,0.634-1.045,0.981-1.548c0.073,0.468,0.151,0.934,0.228,1.4
	c0.016,0.136,0.06,0.288-0.029,0.409c-0.175,0.288-0.363,0.57-0.535,0.861C6.656,17.571,6.442,17.196,6.233,16.818z"/>
<path fill="#FCFDFE" d="M6.339,19.536c0.79-1.311,1.615-2.599,2.412-3.904c0.406,0.224,0.803,0.463,1.198,0.706
	c-0.523,0.871-1.076,1.725-1.599,2.596c0.387,0.23,0.769,0.47,1.147,0.715c0.475-0.712,0.908-1.449,1.362-2.174
	c0.364,0.203,0.71,0.438,1.068,0.65c-0.433,0.741-0.922,1.449-1.34,2.199c0.452,0.257,0.877,0.558,1.333,0.808
	c0.556-0.903,1.119-1.802,1.677-2.704c0.383,0.237,0.751,0.501,1.136,0.736c-0.106,0.25-0.272,0.468-0.411,0.7
	c-0.685,1.113-1.383,2.218-2.063,3.334C10.273,21.996,8.312,20.756,6.339,19.536z"/>
<path fill="#FCFDFE" d="M50.023,20.461c0.401-1.005,1.269-1.746,2.206-2.241c0.302,0.854,0.409,1.793,0.205,2.681
	c-0.232,0.985-0.955,1.777-1.78,2.324c-0.182,0.118-0.361,0.25-0.575,0.303C49.765,22.543,49.648,21.444,50.023,20.461z"/>
<path fill="#FCFDFE" d="M46.289,21.863c0.048-1.138,0.706-2.146,1.493-2.926c0.516,0.664,0.844,1.48,0.94,2.315
	c0.14,1.301-0.571,2.532-1.493,3.394C46.656,23.839,46.261,22.865,46.289,21.863z"/>
<path fill="#FCFDFE" d="M53.544,22.325c1.035-0.568,2.302-0.514,3.397-0.16c-0.449,0.94-1.161,1.805-2.124,2.246
	c-0.991,0.423-2.122,0.339-3.135,0.042C52.072,23.583,52.711,22.802,53.544,22.325z"/>
<path fill="#FCFDFE" d="M5.073,23.205c2.3,0.271,4.596,0.594,6.898,0.848c-0.026,0.481-0.118,0.956-0.161,1.438
	c-1.431-0.167-2.86-0.351-4.288-0.541c1.368,0.718,2.714,1.477,4.068,2.221c-0.038,0.343-0.088,0.685-0.12,1.029
	c-1.491,0.383-2.974,0.797-4.477,1.13c1.416,0.202,2.839,0.353,4.255,0.545c-0.045,0.456-0.111,0.909-0.167,1.365
	c-2.304-0.261-4.603-0.574-6.904-0.854c0.064-0.571,0.145-1.142,0.208-1.713c1.657-0.434,3.314-0.869,4.977-1.283
	c-1.518-0.791-3-1.649-4.505-2.465C4.933,24.35,5.008,23.778,5.073,23.205z"/>
<path fill="#FCFDFE" d="M51.152,26.171c0.987-0.229,2.065-0.229,2.998,0.204c0.794,0.383,1.39,1.084,1.801,1.85
	c0.111,0.196,0.207,0.401,0.266,0.621c-1.08,0.236-2.279,0.225-3.255-0.353C52.108,27.967,51.494,27.103,51.152,26.171z"/>
<path fill="#FCFDFE" d="M48.635,27.21c1.157,0.12,2.359,0.578,3.077,1.536c0.547,0.763,0.836,1.717,0.822,2.652
	c-1.104-0.139-2.246-0.545-2.973-1.428C48.944,29.196,48.656,28.191,48.635,27.21z"/>
<path fill="#0461A6" d="M39.946,28.016c0.396-0.136,0.863,0.203,0.825,0.628c0.026,0.497-0.642,0.819-1.019,0.492
	C39.337,28.856,39.461,28.143,39.946,28.016z"/>
<path fill="#FCFDFE" d="M45.909,40.716c0.698-1.364,1.403-2.726,2.111-4.085c0.418,0.205,0.842,0.401,1.25,0.625
	c-0.483,0.889-0.928,1.799-1.403,2.691c0.402,0.218,0.812,0.423,1.22,0.63c0.397-0.758,0.775-1.525,1.184-2.276
	c0.364,0.198,0.739,0.377,1.104,0.576c-0.373,0.738-0.771,1.465-1.132,2.208c-0.069,0.096,0.088,0.13,0.144,0.172
	c0.41,0.196,0.801,0.432,1.218,0.611c0.483-0.946,0.97-1.891,1.464-2.83c0.395,0.221,0.787,0.444,1.19,0.649
	c-0.695,1.421-1.451,2.812-2.166,4.224C50.031,42.847,47.97,41.78,45.909,40.716z"/>
<path fill="#FCFDFE" d="M6.077,40.552c2.021-1.135,4.02-2.312,6.044-3.439c0.389,0.69,0.785,1.375,1.177,2.063
	c0.398,0.672,0.752,1.427,0.673,2.229c-0.062,0.823-0.661,1.479-1.299,1.941c-0.687,0.483-1.44,0.906-2.266,1.098
	c-0.649,0.146-1.375,0.08-1.927-0.316c-0.634-0.423-1.009-1.106-1.374-1.752C6.768,41.764,6.399,41.171,6.077,40.552z"/>
<path fill="#0461A6" d="M11.437,39.309c0.071-0.041,0.146-0.078,0.225-0.104c0.157,0.165,0.237,0.386,0.357,0.579
	c0.229,0.405,0.54,0.854,0.43,1.342c-0.167,0.577-0.735,0.892-1.211,1.188c-0.559,0.308-1.161,0.688-1.826,0.594
	c-0.403-0.093-0.649-0.466-0.844-0.802c-0.165-0.29-0.335-0.577-0.489-0.874C9.198,40.59,10.317,39.949,11.437,39.309z"/>
<path fill="#FCFDFE" d="M12.027,45.629c1.025-1.143,2.061-2.275,3.089-3.414c0.362,0.349,0.754,0.666,1.111,1.019
	c0.038,0.081-0.04,0.136-0.083,0.191c-0.956,1.04-1.897,2.091-2.847,3.135c-0.223,0.245-0.434,0.549-0.41,0.896
	c0.024,0.332,0.251,0.601,0.48,0.823c0.247,0.226,0.545,0.434,0.89,0.453c0.327-0.014,0.61-0.218,0.827-0.448
	c1.006-1.12,2.024-2.229,3.029-3.35c0.366,0.343,0.75,0.665,1.11,1.014c0.026,0.139-0.147,0.229-0.22,0.337
	c-0.933,1.016-1.853,2.045-2.782,3.063c-0.444,0.48-1.029,0.892-1.703,0.93c-0.717,0.047-1.382-0.324-1.915-0.771
	c-0.587-0.499-1.138-1.128-1.267-1.911C11.214,46.873,11.559,46.16,12.027,45.629z"/>
<path fill="#FCFDFE" d="M45.269,42.285c0.836-0.209,1.678,0.182,2.324,0.691c0.677,0.54,1.309,1.169,1.722,1.938
	c0.328,0.604,0.406,1.351,0.153,1.996c-0.211,0.555-0.604,1.014-1.014,1.436c-0.568,0.581-1.139,1.161-1.703,1.748
	c-1.664-1.612-3.323-3.229-4.991-4.838c0.437-0.498,0.923-0.95,1.377-1.431C43.741,43.188,44.382,42.496,45.269,42.285z"/>
<path fill="#0461A6" d="M44.524,44.421c0.253-0.256,0.53-0.54,0.903-0.598c0.381-0.063,0.736,0.138,1.033,0.354
	c0.446,0.345,0.857,0.74,1.209,1.182c0.227,0.296,0.455,0.646,0.405,1.038c-0.051,0.356-0.312,0.635-0.548,0.888
	c-0.229,0.233-0.455,0.469-0.688,0.698c-0.979-0.964-1.971-1.913-2.956-2.87C44.069,44.858,44.313,44.655,44.524,44.421z"/>
<path fill="#FCFDFE" d="M39.818,46.386c0.413-0.209,0.826-0.421,1.24-0.628c1.041,2.076,2.085,4.15,3.114,6.231
	c-0.331,0.16-0.659,0.327-0.988,0.49c-1.581-0.863-3.192-1.669-4.76-2.557c0.503,0.991,0.998,1.988,1.497,2.982
	c0.153,0.329,0.342,0.643,0.472,0.982c-0.42,0.189-0.821,0.417-1.241,0.608c-0.902-1.808-1.811-3.611-2.714-5.419
	c-0.128-0.272-0.284-0.532-0.385-0.817c0.402-0.187,0.794-0.398,1.196-0.586c1.064,0.599,2.139,1.179,3.207,1.77
	c0.42,0.22,0.821,0.476,1.25,0.679C41.051,48.891,40.45,47.63,39.818,46.386z"/>
<path fill="#FCFDFE" d="M22.008,47.467c0.565,0.14,1.135,0.262,1.694,0.426c0.184,1.52,0.418,3.031,0.608,4.55
	c0.015,0.174,0.042,0.348,0.084,0.519c0.256-0.43,0.562-0.826,0.849-1.235c0.704-0.978,1.405-1.958,2.108-2.936
	c0.557,0.121,1.105,0.278,1.663,0.395c-0.021,0.229-0.079,0.454-0.139,0.676c-0.505,2.031-1.003,4.063-1.509,6.094
	c-0.465-0.116-0.934-0.22-1.396-0.348c0.35-1.392,0.689-2.786,1.041-4.179c-0.738,1.096-1.526,2.158-2.29,3.236
	c-0.137,0.177-0.24,0.385-0.405,0.536c-0.333-0.067-0.66-0.17-0.992-0.24c-0.212-1.526-0.422-3.054-0.613-4.582
	c-0.316,1.394-0.689,2.772-1.009,4.166c-0.458-0.097-0.917-0.201-1.365-0.337C20.905,51.963,21.452,49.714,22.008,47.467z"/>
<path fill="#FCFDFE" d="M31.98,48.842c0.757-0.142,1.581-0.199,2.303,0.119c0.6,0.267,1.017,0.829,1.243,1.43
	c0.304,0.802,0.415,1.664,0.438,2.516c0.012,0.746-0.116,1.554-0.633,2.127c-0.509,0.564-1.278,0.782-2.006,0.881
	c-0.75,0.084-1.574,0.067-2.212-0.385c-0.722-0.506-1.047-1.384-1.208-2.217c-0.158-0.852-0.253-1.739-0.059-2.593
	c0.131-0.585,0.479-1.124,0.992-1.443C31.184,49.052,31.581,48.925,31.98,48.842z"/>
<path fill="#0461A6" d="M32.536,50.173c0.369-0.048,0.791-0.065,1.097,0.185c0.257,0.225,0.382,0.56,0.467,0.883
	c0.125,0.523,0.207,1.061,0.223,1.6c0.008,0.414,0.028,0.873-0.226,1.227c-0.217,0.309-0.61,0.402-0.962,0.452
	c-0.346,0.039-0.738,0.043-1.025-0.186c-0.293-0.236-0.417-0.611-0.51-0.962c-0.135-0.565-0.208-1.146-0.224-1.726
	c0.002-0.374,0.027-0.788,0.281-1.085C31.874,50.304,32.22,50.226,32.536,50.173z"/>
<polyline fill="none" stroke="#FF5E00" stroke-width="2" stroke-miterlimit="10" points="95.761,10 87.88,17.88 80,10 "/>
<polyline fill="none" stroke="#FF5E00" stroke-width="4" stroke-miterlimit="10" points="123.94,17.881 116.061,9.999 123.94,2.119 
	"/>
<polyline fill="none" stroke="#FF5E00" stroke-width="4" stroke-miterlimit="10" points="138.06,2.118 145.94,10 138.06,17.88 "/>
<polyline fill="none" stroke="#FF5E00" stroke-width="4" stroke-miterlimit="10" points="196.138,10.872 179.999,27.008 
	163.863,10.872 "/>
<rect x="200" fill="none" width="40" height="40"/>
<rect x="160" fill="none" width="40" height="40"/>
<rect x="200" y="40" fill="none" width="40" height="40"/>
<rect x="240" y="40" fill="none" width="40" height="40"/>
<rect x="280" y="40" fill="none" width="40" height="40"/>
<rect x="320" y="40" fill="none" width="40" height="40"/>
<rect x="360" y="40" fill="none" width="40" height="40"/>
<rect x="400" y="40" fill="none" width="40" height="40"/>
<rect x="440" y="40" fill="none" width="40" height="40"/>
<rect x="480" y="40" fill="none" width="40" height="40"/>
<rect x="520" y="40" fill="none" width="40" height="40"/>
<rect x="560" y="40" fill="none" width="40" height="40"/>
<rect x="600" y="40" fill="none" width="40" height="40"/>
<rect x="640" y="40" fill="none" width="40" height="40"/>
<rect x="680" y="40" fill="none" width="40" height="40"/>
<rect x="720" y="40" fill="none" width="40" height="40"/>
<rect x="240" fill="none" width="40" height="40"/>
<rect x="280" fill="none" width="40" height="40"/>
<rect x="320" fill="none" width="40" height="40"/>
<rect x="360" fill="none" width="40" height="40"/>
<rect x="400" fill="none" width="40" height="40"/>
<rect x="480" fill="none" width="40" height="40"/>
<rect x="520" fill="none" width="40" height="40"/>
<rect x="560" fill="none" width="40" height="40"/>
<rect x="600" fill="none" width="40" height="40"/>
<rect x="640" fill="none" width="40" height="40"/>
<rect x="680" fill="none" width="40" height="40"/>
<rect x="720" fill="none" width="40" height="40"/>
<rect x="760" fill="none" width="40" height="40"/>
<rect x="800" fill="none" width="40" height="40"/>
<rect x="440" fill="none" width="40" height="40"/>
<path fill="#005B99" d="M80.797,103.964c0,0-3.085,0-4.114,0c-1.844,0-3.58,1.397-3.58,3.015c0,1.654,1.257,2.988,3.134,2.988
	c0.13,0,0.257-0.002,0.38-0.011c-0.122,0.233-0.209,0.496-0.209,0.768c0,0.46,0.248,0.832,0.561,1.136
	c-0.236,0-0.465,0.007-0.713,0.007c-2.284,0-4.042,1.455-4.042,2.963c0,1.485,1.927,2.415,4.211,2.415
	c2.604,0,4.042-1.478,4.042-2.963c0-1.192-0.352-1.905-1.438-2.674c-0.372-0.263-1.083-0.903-1.083-1.279
	c0-0.44,0.125-0.658,0.789-1.176c0.681-0.531,1.162-1.279,1.162-2.147c0-1.035-0.46-2.044-1.326-2.377h1.305L80.797,103.964z
	 M79.36,114.026c0.033,0.137,0.051,0.279,0.051,0.423c0,1.201-0.773,2.139-2.993,2.139c-1.579,0-2.719-0.999-2.719-2.2
	c0-1.176,1.414-2.156,2.992-2.139c0.369,0.004,0.712,0.063,1.024,0.164C78.572,113.01,79.188,113.347,79.36,114.026z
	 M76.833,109.548c-1.059-0.033-2.066-1.186-2.25-2.578c-0.182-1.392,0.528-2.457,1.587-2.425c1.06,0.032,2.067,1.148,2.25,2.54
	C78.603,108.478,77.892,109.58,76.833,109.548z M84.987,106.911v-2.947h-0.982v2.947h-2.947v0.982h2.947v2.948h0.982v-2.948h2.948
	v-0.982H84.987z"/>
<path fill="#005B99" d="M101.237,117.973h-2.946v-7.86h-1.965v-2.708l1.965-0.001l-0.003-1.596c0-2.21,0.599-3.555,3.202-3.555
	h2.167v2.709h-1.354c-1.014,0-1.063,0.378-1.063,1.085l-0.003,1.356h2.436l-0.287,2.708l-2.147,0.001L101.237,117.973z"/>
<path fill="#005B99" d="M127.86,105.124c-0.578,0.256-1.2,0.43-1.852,0.508c0.665-0.399,1.177-1.031,1.418-1.784
	c-0.624,0.369-1.313,0.638-2.048,0.782c-0.588-0.627-1.427-1.019-2.354-1.019c-1.781,0-3.226,1.444-3.226,3.226
	c0,0.253,0.029,0.499,0.084,0.735c-2.681-0.135-5.058-1.419-6.647-3.371c-0.278,0.477-0.438,1.03-0.438,1.622
	c0,1.119,0.57,2.106,1.435,2.685c-0.529-0.018-1.026-0.162-1.461-0.403c0,0.013,0,0.026,0,0.04c0,1.563,1.111,2.866,2.587,3.163
	c-0.271,0.074-0.556,0.113-0.85,0.113c-0.208,0-0.41-0.02-0.607-0.057c0.41,1.28,1.601,2.213,3.013,2.239
	c-1.104,0.865-2.495,1.381-4.005,1.381c-0.26,0-0.517-0.016-0.77-0.046c1.427,0.916,3.123,1.45,4.944,1.45
	c5.932,0,9.176-4.915,9.176-9.177c0-0.14-0.003-0.279-0.009-0.417C126.881,106.338,127.428,105.771,127.86,105.124z"/>
<path fill="#005B99" d="M64.913,103.709h-9.825c-1.621,0-2.948,1.327-2.948,2.948v5.895c0,1.622,1.327,2.948,2.948,2.948h9.825
	c1.621,0,2.948-1.326,2.948-2.948v-5.895C67.86,105.036,66.533,103.709,64.913,103.709z M58.035,113.535v-7.86l4.913,3.93
	L58.035,113.535z"/>
<rect x="50" y="100" fill="none" width="20" height="20"/>
<rect x="70" y="100" fill="none" width="20" height="20"/>
<rect x="90" y="100" fill="none" width="20" height="20"/>
<rect x="110" y="100" fill="none" width="20" height="20"/>
<rect x="110" fill="none" width="20" height="20"/>
<rect x="130" fill="none" width="20" height="20"/>
<polyline fill="none" stroke="#0461A6" stroke-width="4" stroke-miterlimit="10" points="123.94,37.881 116.061,30 123.94,22.12 "/>
<polyline fill="none" stroke="#0461A6" stroke-width="4" stroke-miterlimit="10" points="138.06,22.119 145.94,30 138.06,37.88 "/>
<rect x="110" y="20" fill="none" width="20" height="20"/>
<rect x="110" y="40" fill="none" width="20" height="20"/>
<rect x="130" y="20" fill="none" width="20" height="20"/>
<path fill="#FFFFFF" d="M80.797,123.964c0,0-3.085,0-4.114,0c-1.844,0-3.58,1.397-3.58,3.015c0,1.654,1.257,2.988,3.134,2.988
	c0.13,0,0.257-0.002,0.38-0.011c-0.122,0.233-0.209,0.496-0.209,0.768c0,0.46,0.248,0.832,0.561,1.136
	c-0.236,0-0.465,0.007-0.713,0.007c-2.284,0-4.042,1.455-4.042,2.963c0,1.485,1.927,2.415,4.211,2.415
	c2.604,0,4.042-1.478,4.042-2.963c0-1.192-0.352-1.905-1.438-2.674c-0.372-0.263-1.083-0.903-1.083-1.279
	c0-0.44,0.125-0.658,0.789-1.176c0.681-0.531,1.162-1.279,1.162-2.147c0-1.035-0.46-2.044-1.326-2.377h1.305L80.797,123.964z
	 M79.36,134.026c0.033,0.137,0.051,0.279,0.051,0.423c0,1.201-0.773,2.139-2.993,2.139c-1.579,0-2.719-0.999-2.719-2.2
	c0-1.176,1.414-2.156,2.992-2.139c0.369,0.004,0.712,0.063,1.024,0.164C78.572,133.01,79.188,133.347,79.36,134.026z
	 M76.833,129.548c-1.059-0.033-2.066-1.186-2.25-2.578c-0.182-1.392,0.528-2.457,1.587-2.425c1.06,0.032,2.067,1.148,2.25,2.54
	C78.603,128.478,77.892,129.58,76.833,129.548z M84.987,126.911v-2.947h-0.982v2.947h-2.947v0.982h2.947v2.948h0.982v-2.948h2.948
	v-0.982H84.987z"/>
<path fill="#FFFFFF" d="M101.237,137.973h-2.946v-7.86h-1.965v-2.708l1.965-0.001l-0.003-1.596c0-2.21,0.599-3.555,3.202-3.555
	h2.167v2.709h-1.354c-1.014,0-1.063,0.378-1.063,1.085l-0.003,1.356h2.436l-0.287,2.708l-2.147,0.001L101.237,137.973z"/>
<path fill="#FFFFFF" d="M127.86,125.124c-0.578,0.256-1.2,0.43-1.852,0.508c0.665-0.399,1.177-1.031,1.418-1.784
	c-0.624,0.369-1.313,0.638-2.048,0.782c-0.588-0.627-1.427-1.019-2.354-1.019c-1.781,0-3.226,1.444-3.226,3.226
	c0,0.253,0.029,0.499,0.084,0.735c-2.681-0.135-5.058-1.419-6.647-3.371c-0.278,0.477-0.438,1.03-0.438,1.622
	c0,1.119,0.57,2.106,1.435,2.685c-0.529-0.018-1.026-0.162-1.461-0.403c0,0.013,0,0.026,0,0.04c0,1.563,1.111,2.866,2.587,3.163
	c-0.271,0.074-0.556,0.113-0.85,0.113c-0.208,0-0.41-0.02-0.607-0.057c0.41,1.28,1.601,2.213,3.013,2.239
	c-1.104,0.865-2.495,1.381-4.005,1.381c-0.26,0-0.517-0.016-0.77-0.046c1.427,0.916,3.123,1.45,4.944,1.45
	c5.932,0,9.176-4.915,9.176-9.177c0-0.14-0.003-0.279-0.009-0.417C126.881,126.338,127.428,125.771,127.86,125.124z"/>
<path fill="#FFFFFF" d="M64.913,123.709h-9.825c-1.621,0-2.948,1.327-2.948,2.948v5.895c0,1.622,1.327,2.948,2.948,2.948h9.825
	c1.621,0,2.948-1.326,2.948-2.948v-5.895C67.86,125.036,66.533,123.709,64.913,123.709z M58.035,133.535v-7.86l4.913,3.93
	L58.035,133.535z"/>
<rect x="50" y="120" fill="none" width="20" height="20"/>
<rect x="70" y="120" fill="none" width="20" height="20"/>
<rect x="90" y="120" fill="none" width="20" height="20"/>
<rect x="110" y="120" fill="none" width="20" height="20"/>
<polyline fill="#FF5E00" points="110,40 120,50 110,60 "/>
<rect x="130" y="40" fill="none" width="20" height="20"/>
<polyline fill="#FF5E00" points="150,60 140,50 150,40 "/>
<g>
	<path fill="#6D6E70" d="M389.99,15.485h-7.121c-0.238,0-0.431-0.193-0.431-0.432v-3.654c0-0.238,0.193-0.431,0.431-0.431h3.952
		c0.238,0,0.542,0.159,0.679,0.354l2.674,3.81C390.31,15.327,390.227,15.485,389.99,15.485 M377.448,14.468h-2.14v2.14h-2.158v-2.14
		h-2.139v-2.157h2.139v-2.14h2.158v2.14h2.14V14.468z M392.616,15.889l-0.438-0.161c-0.077-0.114-3.247-4.631-3.247-4.631
		c-1.369-1.951-4.41-3.532-6.792-3.532h-12.37c-2.382,0-4.314,1.931-4.314,4.314v9.492c0,1.192,0.966,2.157,2.158,2.157h1.249
		c0-2.372,1.93-4.302,4.302-4.302c2.373,0,4.303,1.93,4.303,4.302h5.166c0-2.372,1.93-4.302,4.302-4.302
		c2.373,0,4.302,1.93,4.302,4.302h1.249c1.192,0,2.158-0.966,2.158-2.157V18.79C394.641,17.599,393.734,16.3,392.616,15.889"/>
	<path fill="#6D6E70" d="M385.657,23.528c0-0.714,0.581-1.294,1.295-1.294c0.713,0,1.293,0.58,1.293,1.294
		c0,0.714-0.581,1.294-1.293,1.294C386.238,24.823,385.657,24.242,385.657,23.528 M383.499,23.528c0,1.907,1.545,3.452,3.453,3.452
		c1.906,0,3.451-1.545,3.451-3.452c0-1.906-1.545-3.451-3.451-3.451C385.044,20.077,383.499,21.622,383.499,23.528"/>
	<path fill="#6D6E70" d="M373.144,24.823c-0.714,0-1.294-0.581-1.294-1.294c0-0.714,0.581-1.294,1.294-1.294
		c0.714,0,1.294,0.58,1.294,1.294C374.438,24.242,373.858,24.823,373.144,24.823 M373.144,20.076c-1.906,0-3.452,1.546-3.452,3.452
		c0,1.907,1.545,3.452,3.452,3.452c1.907,0,3.452-1.545,3.452-3.452C376.596,21.622,375.05,20.076,373.144,20.076"/>
	<path fill="#6D6E70" d="M380.047,4.853c-1.191,0-2.157,0.834-2.157,1.861h4.315C382.205,5.687,381.239,4.853,380.047,4.853"/>
</g>
<path fill="#6D6E70" d="M544.445,12.604h-3.027v3.028h-2.833v-3.028h-3.028V9.771h3.028V6.744h2.833v3.028h3.027V12.604
	 M540.001,4.729c-6.183,0-11.491,3.258-12.989,5.271l3.068,9.01c5.367-1.82,14.475-1.82,19.842,0l3.066-9.01
	C551.491,7.988,546.183,4.729,540.001,4.729"/>
<g>
	<path fill="#6D6E70" d="M267.25,27.263h4.525c0-2.082-2.614-4.051-5.091-5.346L267.25,27.263z"/>
	<path fill="#6D6E70" d="M252.985,21.917c-2.478,1.294-5.092,3.264-5.092,5.346h4.525L252.985,21.917z"/>
	<path fill="#6D6E70" d="M263.716,20.645c-0.373-0.12-0.691-0.202-0.928-0.24c-0.589-0.094-0.603-1.714-0.603-1.714
		s1.732-1.715,2.109-4.02c1.015,0,1.643-2.451,0.626-3.313c0.042-0.906,1.306-7.125-5.087-7.125c-6.392,0-5.128,6.218-5.087,7.125
		c-1.016,0.863-0.388,3.313,0.626,3.313c0.377,2.306,2.11,4.021,2.11,4.021s-0.015,1.621-0.603,1.714
		c-0.236,0.038-0.553,0.119-0.927,0.239l1.233,6.618h2.648h2.649L263.716,20.645z"/>
	<polygon fill="#6D6E70" points="255.77,25.221 255.089,25.221 255.089,24.54 254.451,24.54 254.451,25.221 253.77,25.221 
		253.77,25.858 254.451,25.858 254.451,26.54 255.089,26.54 255.089,25.858 255.77,25.858 	"/>
</g>
<g>
	<path fill="#6D6E70" d="M580.549,14.872l-2.425-1.698l0.592-0.845l2.425,1.698L580.549,14.872 M578.656,17.575l-2.425-1.698
		l0.591-0.845l2.426,1.698L578.656,17.575z M576.764,20.279l-2.426-1.699l0.592-0.845l2.426,1.698L576.764,20.279z M588.352,13.821
		l-9.039-6.33c-0.3-0.209-0.711-0.137-0.92,0.162c-0.209,0.299-0.137,0.71,0.162,0.92l0.761,0.532l-7.056,10.076
		c-0.393,0.56-0.256,1.332,0.305,1.724l5.49,3.845c0.562,0.392,1.332,0.256,1.726-0.304l7.055-10.077l0.761,0.533
		c0.298,0.209,0.71,0.136,0.919-0.163C588.723,14.441,588.65,14.03,588.352,13.821"/>
	<path fill="#6D6E70" d="M590.086,8.153l-6.041-4.229c-0.299-0.209-0.711-0.137-0.92,0.161c-0.209,0.299-0.137,0.711,0.163,0.92
		l0.305,0.213l-1.827,2.608l0.931,0.65l1.825-2.607l3.573,2.502l-1.825,2.607l0.929,0.651l1.825-2.608l0.306,0.214
		c0.299,0.208,0.71,0.137,0.92-0.162C590.456,8.773,590.384,8.362,590.086,8.153"/>
	<polygon fill="#6D6E70" points="576.465,25.021 572.854,22.491 572.429,25.732 572.574,25.834 569.634,30.034 571.284,29.475 
		573.419,26.425 573.564,26.527 	"/>
</g>
<g>
	<path fill="#6D6E70" d="M825.623,16.345c0.76-1.101,1.205-2.435,1.205-3.874c0-1.438-0.445-2.772-1.205-3.874
		c2.598,1.186,4.648,2.887,5.713,3.874C830.271,13.459,828.221,15.161,825.623,16.345 M814.377,8.597
		c-0.76,1.102-1.205,2.436-1.205,3.874c0,1.439,0.445,2.773,1.205,3.874c-2.598-1.184-4.648-2.885-5.713-3.874
		C809.729,11.484,811.779,9.783,814.377,8.597 M820,17.455c-2.752,0-4.983-2.231-4.983-4.984c0-2.752,2.231-4.983,4.983-4.983
		s4.984,2.231,4.984,4.983C824.984,15.224,822.752,17.455,820,17.455 M833.252,11.384c-1.477-1.458-6.798-6.217-13.252-6.217
		s-11.775,4.759-13.252,6.217c-0.288,0.284-0.453,0.681-0.453,1.087c0,0.407,0.165,0.804,0.453,1.087
		c1.477,1.459,6.798,6.217,13.252,6.217s11.775-4.758,13.252-6.217c0.287-0.283,0.453-0.68,0.453-1.087
		C833.705,12.064,833.539,11.668,833.252,11.384"/>
	<path fill="#6D6E70" d="M821.462,14.515c-0.322,0-0.583-0.26-0.583-0.583c0-0.322,0.261-0.582,0.583-0.582
		c0.321,0,0.582,0.26,0.582,0.582C822.044,14.255,821.783,14.515,821.462,14.515 M820,9.413c-0.472,0-0.919,0.107-1.318,0.299
		c0.427,0.158,0.73,0.569,0.73,1.051c0,0.619-0.502,1.122-1.121,1.122c-0.482,0-0.893-0.304-1.051-0.731
		c-0.191,0.399-0.299,0.846-0.299,1.318c0,1.689,1.368,3.059,3.059,3.059s3.059-1.369,3.059-3.059S821.689,9.413,820,9.413"/>
</g>
<path fill="#6D6E70" d="M453.725,24.242c-0.441,0.476-0.367,0.946,0.252,1.14l8.826,2.769c0.619,0.194,0.824-0.083,0.492-0.641
	c-0.697-1.177-1.669-3.091-1.218-3.982c0.849-1.68,3.052,0.821,4.357,0.131c0.859-0.455,0.938-1.238,1.232-1.792
	c0.324-0.611,0.751-0.688,0.809-0.923c0.063-0.274-0.78-0.708-0.78-0.897c0-0.19,0.99-0.329,1.066-0.591
	c0.074-0.264-0.549-0.698-0.414-1.164c0.14-0.471,1.625-0.59,1.625-1.139c0-0.598-2.192-2.707-2.192-3.576
	c0-0.896,0.504-1.344,0.504-2.715c0-3.276-3.743-7.281-8.653-7.281c-5.264,0-9.604,3.752-9.604,8.065
	c0,6.254,4.76,8.904,4.76,10.445C454.786,22.911,454.238,23.692,453.725,24.242 M457.257,12.873h-2.646v-2.474h2.646V7.754h2.475
	v2.645h2.645v2.474h-2.645v2.645h-2.475V12.873z"/>
<path fill="#F05A28" d="M732.722,63.303c-0.441,0.476-0.367,0.946,0.252,1.14l8.826,2.769c0.619,0.194,0.824-0.083,0.492-0.641
	c-0.697-1.177-1.669-3.091-1.218-3.982c0.849-1.68,3.052,0.821,4.357,0.131c0.859-0.455,0.938-1.238,1.232-1.792
	c0.324-0.611,0.751-0.688,0.809-0.923c0.063-0.274-0.78-0.708-0.78-0.897c0-0.19,0.99-0.329,1.066-0.591
	c0.074-0.264-0.549-0.698-0.414-1.164c0.14-0.471,1.625-0.59,1.625-1.139c0-0.598-2.192-2.707-2.192-3.576
	c0-0.896,0.504-1.344,0.504-2.715c0-3.276-3.743-7.281-8.653-7.281c-5.264,0-9.604,3.752-9.604,8.065
	c0,6.254,4.76,8.904,4.76,10.445C733.783,61.972,733.235,62.752,732.722,63.303 M736.254,51.934h-2.646v-2.474h2.646v-2.645h2.475
	v2.645h2.645v2.474h-2.645v2.645h-2.475V51.934z"/>
<g>
	<polygon fill="#6D6E70" points="343.126,15.501 340.097,15.501 340.097,12.471 337.262,12.471 337.262,15.501 334.231,15.501 
		334.231,18.336 337.262,18.336 337.262,21.366 340.097,21.366 340.097,18.336 343.126,18.336 	"/>
	<path fill="#6D6E70" d="M346.984,7.352h-2.922V5.505c0-1.25-1.018-2.268-2.268-2.268h-6.231c-1.25,0-2.268,1.017-2.268,2.268v1.847
		h-2.921c-2.572,0-4.658,2.085-4.658,4.657v9.819c0,2.393,1.806,4.361,4.128,4.625c-0.004-0.055-0.009-0.109-0.009-0.166
		c0-1.409,1.142-2.551,2.551-2.551c1.409,0,2.551,1.142,2.551,2.551c0,0.067-0.005,0.133-0.009,0.198h7.814
		c-0.005-0.065-0.009-0.131-0.009-0.198c0-1.409,1.142-2.551,2.551-2.551c1.41,0,2.552,1.142,2.552,2.551
		c0,0.04-0.005,0.078-0.006,0.118c2.167-0.399,3.811-2.294,3.811-4.577v-9.819C351.642,9.438,349.556,7.352,346.984,7.352
		 M334.996,5.505c0-0.312,0.254-0.567,0.567-0.567h6.231c0.312,0,0.566,0.254,0.566,0.567v1.847h-7.364V5.505L334.996,5.505z
		 M338.68,23.21c-3.476,0-6.292-2.816-6.292-6.292s2.817-6.292,6.292-6.292c3.475,0,6.291,2.817,6.291,6.292
		S342.154,23.21,338.68,23.21"/>
	<path fill="#6D6E70" d="M333.812,26.287c0-0.787-0.638-1.426-1.425-1.426c-0.787,0-1.426,0.639-1.426,1.426
		s0.639,1.425,1.426,1.425C333.175,27.712,333.812,27.074,333.812,26.287"/>
	<path fill="#6D6E70" d="M346.758,26.287c0-0.787-0.638-1.426-1.426-1.426c-0.787,0-1.426,0.639-1.426,1.426
		s0.639,1.425,1.426,1.425C346.12,27.712,346.758,27.074,346.758,26.287"/>
</g>
<g>
	<path fill="#6D6E70" d="M763.294,22.615l8.302-18.857c0,0,2.904,0.854,11.837,0.854c4.335,0,5.383-0.854,5.383-0.854l7.891,18.857
		h-18.038l-6.156-14.682l-6.191,14.682H763.294z"/>
	<rect x="766.034" y="21.259" fill="#6D6E70" width="13.426" height="1.64"/>
</g>
<g>
	<rect x="606.66" y="4.545" fill="#6D6E70" width="3.168" height="25.349"/>
	<path fill="#6D6E70" d="M612.189,4.914V23.47c5.245-5.908,13.395-2.932,18.64-9.278C623.203,14.576,619.816,4.529,612.189,4.914
		 M621.812,15.08c-0.675-0.221-1.012-0.336-1.687-0.543v1.685c-0.631-0.193-0.946-0.286-1.576-0.43v-1.686
		c-0.675-0.154-1.012-0.216-1.686-0.272v-1.577c0.674,0.057,1.011,0.118,1.686,0.273v-1.687c0.63,0.146,0.945,0.236,1.576,0.43
		v1.685c0.675,0.207,1.012,0.323,1.687,0.543V15.08z"/>
</g>
<g>
	<path fill="#6D6E70" d="M694.167,8.19V6.899c-0.821,0.513-2.025,0.848-2.908,0.848c-1.464,0-2.649-0.918-2.649-2.05
		c0-1.132,1.187-2.051,2.649-2.051c0.883,0,2.087,0.335,2.909,0.849c0.004-0.592,0.483-1.07,1.077-1.07
		c0.592,0,1.071,0.478,1.075,1.07c0.82-0.514,2.025-0.849,2.908-0.849c1.464,0,2.648,0.919,2.648,2.051
		c0,1.132-1.186,2.05-2.648,2.05c-0.882,0-2.088-0.334-2.908-0.848V8.19c0.805,0.159,1.437,0.502,1.912,0.974h0.226
		c6.03,0,10.935,4.906,10.935,10.936h-6.032c0-2.703-2.198-4.902-4.901-4.902h-0.227c-0.668,0.667-1.651,1.077-2.986,1.077
		c-1.339,0-2.32-0.411-2.989-1.077h-3.418V9.164h3.418C692.73,8.692,693.362,8.349,694.167,8.19"/>
	<path fill="#6D6E70" d="M708.314,26.406c0,1.16-0.85,1.914-1.708,2.03c1.108-1.051,1.236-2.65,0.942-3.824
		C707.988,25.233,708.314,25.759,708.314,26.406 M703.969,26.406c0,1.481,1.167,2.516,2.408,2.516s2.407-1.035,2.407-2.516
		c0-1.663-1.684-2.526-2.407-4.889C705.65,23.879,703.969,24.743,703.969,26.406"/>
</g>
<path fill="#6D6E70" d="M669.097,19.654c-0.999,0-1.812-0.813-1.812-1.814s0.813-1.814,1.812-1.814c1,0,1.814,0.814,1.814,1.814
	S670.097,19.654,669.097,19.654 M672.364,17.84c0-1.802-1.466-3.268-3.269-3.268c-1.802,0-3.267,1.465-3.267,3.268
	c0,1.459,0.961,2.698,2.283,3.116c-0.148,4.192-1.927,6.586-4.938,6.586c-3.061,0-4.846-2.473-4.942-6.793
	c4.134-0.911,8.64-7.241,8.64-11.333c0-2.613-1.723-4.473-3.516-5.246c-0.242-0.755-0.943-1.306-1.778-1.306
	c-1.035,0-1.875,0.841-1.875,1.876c0,1.035,0.84,1.875,1.875,1.875c0.509,0,0.967-0.204,1.305-0.531
	c1.023,0.542,2.052,1.664,2.052,3.333c0,3.443-4.439,9.51-7.681,9.51s-7.681-6.066-7.681-9.51c0-1.668,1.026-2.792,2.051-3.333
	c0.338,0.329,0.797,0.532,1.306,0.532c1.035,0,1.875-0.84,1.875-1.875c0-1.035-0.84-1.876-1.875-1.876
	c-0.836,0-1.536,0.551-1.778,1.305c-1.791,0.773-3.517,2.632-3.517,5.247c0,4.098,4.522,10.444,8.663,11.339
	c0.133,6.416,3.611,8.725,6.878,8.725c3.229,0,6.665-2.26,6.869-8.514C671.387,20.559,672.364,19.312,672.364,17.84"/>
<path fill="#6D6E70" d="M750.185,3.762c0,0-3.349-0.113-3.349,2.532v4.276c0,0,0.042,3.713-3.104,3.713h-1.76V7.974
	c0-1.43,0.233-2.35,0.702-2.762c0.468-0.411,1.493-0.655,3.074-0.73V3.761h-11.5v0.721c1.581,0.075,2.606,0.319,3.074,0.73
	c0.467,0.412,0.702,1.332,0.702,2.762v6.309h-1.76c-3.146,0-3.104-3.713-3.104-3.713V6.293c0-2.645-3.347-2.532-3.347-2.532h-1.309
	v1.013c1.509,0,1.72,1.35,1.72,1.35v4.951c0,4.389,3.229,4.333,3.229,4.333h4.569v7.204c0,1.498-0.235,2.426-0.702,2.784
	c-0.469,0.359-1.493,0.595-3.074,0.708v0.721h11.5v-0.721c-1.581-0.113-2.606-0.349-3.074-0.708
	c-0.469-0.358-0.702-1.287-0.702-2.784v-7.204h4.568c0,0,3.229,0.056,3.229-4.333v-4.95c0,0,0.209-1.35,1.719-1.35V3.761
	L750.185,3.762z"/>
<g>
	<polygon fill="#6D6E70" points="303.98,16.115 300.95,16.115 300.95,13.085 298.115,13.085 298.115,16.115 295.085,16.115 
		295.085,18.95 298.115,18.95 298.115,21.98 300.95,21.98 300.95,18.95 303.98,18.95 	"/>
	<path fill="#6D6E70" d="M312.496,20.527v-7.905c0-2.572-2.086-4.657-4.658-4.657h-2.921V6.119c0-1.25-1.018-2.268-2.269-2.268
		h-6.23c-1.25,0-2.269,1.018-2.269,2.268v1.847h-2.921c-2.572,0-4.657,2.085-4.657,4.657v9.819l0,0v0.386
		c0,2.349,1.922,4.271,4.271,4.271h4.941h7.815h4.627c2.349,0,4.271-1.922,4.271-4.271V20.527L312.496,20.527 M295.851,6.119
		c0-0.312,0.254-0.567,0.567-0.567h6.23c0.313,0,0.568,0.254,0.568,0.567v1.847h-7.365V6.119z M299.532,11.24
		c3.476,0,6.293,2.817,6.293,6.292c0,3.474-2.817,6.292-6.293,6.292c-3.474,0-6.291-2.817-6.291-6.292
		C293.241,14.057,296.058,11.24,299.532,11.24"/>
</g>
<g>
	<path fill="#6D6E70" d="M424.854,11.403c4.774,1.834,8.26,6.292,8.735,8.788l-4.479-0.995
		C426.119,18.533,424.324,15.212,424.854,11.403 M420.312,24.362l0.803-1.447c0.017,0.003,0.033,0.009,0.049,0.012l4.118,0.915
		l0.115,1.649L420.312,24.362z M420.422,16.607l-0.39,1.75l-1.655-0.368l0.39-1.75l-1.751-0.388l0.367-1.656l1.752,0.388l0.388-1.75
		l1.656,0.368l-0.39,1.75l1.75,0.389l-0.366,1.656L420.422,16.607z M406.136,12.257l1.856,0.843
		c-0.574,0.496-1.368,0.726-2.166,0.549c-1.341-0.298-2.189-1.631-1.892-2.973c0.297-1.342,1.631-2.19,2.973-1.893
		c0.879,0.195,1.545,0.837,1.815,1.634l-2.122-0.254c-0.588-0.07-1.137,0.174-1.266,0.753
		C405.207,11.495,405.596,12.012,406.136,12.257 M434.271,21.217c0.58-2.616-4.265-9.506-11.029-11.009
		c-3.973-0.882-6.582-0.121-8.092,0.979l-5.202-0.623c-0.255-1.397-1.32-2.574-2.792-2.901c-1.964-0.436-3.907,0.802-4.343,2.764
		c-0.437,1.962,0.802,3.907,2.764,4.342c1.349,0.3,2.687-0.19,3.534-1.163l4.253,1.927c0.272,3.843,3.749,6.069,6.498,7.018
		l-0.846,1.522l-3.348-0.744c-0.343-0.076-0.683,0.14-0.76,0.483c-0.075,0.344,0.141,0.683,0.483,0.759l14.118,3.136
		c0.344,0.076,0.684-0.14,0.759-0.483c0.076-0.343-0.14-0.683-0.482-0.759l-3.093-0.687l-0.117-1.669
		C429.477,24.553,433.718,23.709,434.271,21.217"/>
	<path fill="#6D6E70" d="M424.629,8.345c-0.115-0.362-0.411-0.657-0.808-0.745c-0.397-0.088-0.79,0.053-1.047,0.332l-10.642-2.363
		l-0.185,0.828l23.136,5.138l0.186-0.828L424.629,8.345"/>
</g>
<path fill="#6D6E70" d="M220.246,5.897c1.932,0,3.499,1.566,3.499,3.5c0,1.933-1.567,3.499-3.499,3.499
	c-1.933,0-3.5-1.566-3.5-3.499S218.313,5.897,220.246,5.897 M224.167,15.931h4.192v4.192h-4.192V15.931z M224.167,21.948h4.192
	v4.192h-4.192V21.948z M218.149,15.931h4.193v4.192h-4.193V15.931z M212.133,15.931h4.192v4.192h-4.192V15.931z M212.133,21.948
	h4.192v4.192h-4.192V21.948z M220.246,3.258l-14.17,10.576h3.351v14.402h8.722v-6.288h4.193v6.288h8.722V13.834h3.351L220.246,3.258
	z"/>
<polygon fill="#6D6E70" points="219.458,11.87 221.034,11.87 221.034,10.185 222.72,10.185 222.72,8.608 221.034,8.608 
	221.034,6.923 219.458,6.923 219.458,8.608 217.772,8.608 217.772,10.185 219.458,10.185 "/>
<g>
	<polygon fill="#6D6E70" points="484.729,15.293 484.729,23.099 487.331,20.497 498.606,29.171 489.933,17.895 492.462,15.293 	"/>
	<polygon fill="#6D6E70" points="500,25.92 497.675,9.979 493.357,9.979 500,4.666 506.642,9.979 502.324,9.979 	"/>
	<polygon fill="#6D6E70" points="515.271,15.293 507.465,15.293 510.066,17.895 501.393,29.171 512.669,20.497 515.271,23.026 	"/>
</g>
<g>
	<path fill="#F05A28" d="M428.135,44.984h-3.371v1.683h2.951v18.662h-15.391V46.667h2.953v-1.683h-3.373
		c-0.697,0-1.262,0.565-1.262,1.262V65.75c0,0.696,0.564,1.261,1.262,1.261h16.23c0.699,0,1.265-0.565,1.265-1.261V46.246
		C429.398,45.549,428.834,44.984,428.135,44.984"/>
	<path fill="#F05A28" d="M420.02,43.391c0.686,0,1.25,0.512,1.342,1.173h-2.684C418.771,43.902,419.334,43.391,420.02,43.391
		 M422.203,44.564c-0.098-1.125-1.033-2.014-2.184-2.014c-1.148,0-2.086,0.889-2.184,2.014h-1.496v2.943h7.361v-2.943H422.203z"/>
	<polygon fill="#F05A28" points="422.619,57.085 421.092,51.582 419.512,56.744 418.025,52.708 417.1,54.319 413.766,54.319 
		413.766,53.479 416.613,53.479 418.195,50.728 419.439,54.109 421.131,48.581 422.873,54.858 423.623,53.479 426.273,53.479 
		426.273,54.319 424.123,54.319 	"/>
	<rect x="414.803" y="57.79" fill="#F05A28" width="10.436" height="0.841"/>
	<rect x="414.803" y="59.893" fill="#F05A28" width="10.436" height="0.841"/>
	<rect x="414.803" y="61.995" fill="#F05A28" width="10.436" height="0.84"/>
</g>
<g>
	<path fill="#F05A28" d="M449.517,64.625c0,1.481,1.2,2.682,2.684,2.682h14.637c1.481,0,2.683-1.201,2.683-2.682V51.437h-20.002
		L449.517,64.625L449.517,64.625z M459.518,54.207c2.853,0,5.166,2.312,5.166,5.165c0,2.852-2.313,5.165-5.166,5.165
		s-5.164-2.312-5.164-5.165S456.665,54.207,459.518,54.207"/>
	<polygon fill="#F05A28" points="458.354,63.022 460.681,63.022 460.681,60.535 463.168,60.535 463.168,58.208 460.681,58.208 
		460.681,55.721 458.354,55.721 458.354,58.208 455.866,58.208 455.866,60.535 458.354,60.535 	"/>
	<path fill="#F05A28" d="M466.836,46.242h-2.681v-0.498c0-1.406-1.144-2.548-2.549-2.548h-4.181c-1.403,0-2.547,1.142-2.547,2.548
		v0.498h-2.681c-1.482,0-2.684,1.202-2.684,2.683v1.45h20.002v-1.45C469.519,47.444,468.317,46.242,466.836,46.242 M462.812,46.242
		h-6.593v-0.498c0-0.666,0.541-1.207,1.206-1.207h4.181c0.665,0,1.206,0.541,1.206,1.207V46.242z"/>
</g>
<g>
	<path fill="#F05A28" d="M379.597,43.117c-6.838,0-12.381,4.29-12.381,9.582c0,3.396,2.287,6.377,5.729,8.079
		c-0.125,1-0.199,1.895-0.283,3.202c-0.029,0.42,0.5,0.625,0.787,0.311c1.018-1.112,1.865-1.795,3.148-2.296
		c0.959,0.186,1.965,0.285,3,0.285c6.838,0,12.379-4.289,12.379-9.581S386.435,43.117,379.597,43.117 M384.204,54.025h-2.836v2.835
		h-2.654v-2.835h-2.834v-2.653h2.834v-2.836h2.654v2.836h2.836V54.025z"/>
</g>
<g>
	<rect x="246.699" y="54.957" fill="#F05A28" width="7.851" height="4.689"/>
	<rect x="256.074" y="54.957" fill="#F05A28" width="7.85" height="4.689"/>
	<rect x="256.074" y="43.151" fill="#F05A28" width="7.85" height="4.69"/>
	<rect x="265.448" y="54.957" fill="#F05A28" width="7.853" height="4.689"/>
	<rect x="251.175" y="49.032" fill="#F05A28" width="7.853" height="4.689"/>
	<rect x="260.552" y="49.032" fill="#F05A28" width="7.851" height="4.689"/>
</g>
<g>
	<path fill="#F05A28" d="M540.691,66.308c-0.601,0-1.086-0.485-1.086-1.085c0-0.599,0.485-1.084,1.086-1.084
		c0.599,0,1.085,0.485,1.085,1.084S541.29,66.308,540.691,66.308 M550.312,55.674l-8.32,3.771c0.289,0.637,1.113,0.885,1.841,0.556
		l1.272-0.577c-0.788,0.855-2.223,1.952-4.414,1.952c-1.748,0-3.418-1.13-3.894-2.632c-1.099-3.486,1.696-6.524,3.099-7.778
		c0.228,0.499,0.517,1.135,0.942,2.08l5.421-2.457c-1.057-2.33-1.271-2.803-1.772-3.913c-0.475-1.043-1.518-1.903-2.325-2.333
		l-0.816-1.803c-0.084-0.183-0.298-0.263-0.479-0.18l-0.44,0.199l-0.33-0.73c-0.057-0.127-0.208-0.184-0.336-0.125l-1.315,0.597
		c-0.128,0.057-0.187,0.207-0.127,0.335l0.331,0.73l-0.44,0.199c-0.181,0.083-0.261,0.296-0.178,0.478l0.816,1.804
		c-0.212,0.892-0.253,2.244,0.221,3.287c0.058,0.126,0.108,0.243,0.162,0.357c-1.771,1.05-6.918,4.643-5.189,10.125
		c0.641,2.031,2.38,3.64,4.482,4.313l-1.223,2.425h-0.423c-0.798,0-1.447,0.648-1.447,1.448h10.523c0-0.799-0.648-1.448-1.448-1.448
		h-0.423l-1.249-2.49c1.842-0.668,4.176-2.334,5.163-5.75l1.521-0.688C550.244,57.096,550.602,56.312,550.312,55.674"/>
	<path fill="#F05A28" d="M541.069,54.495l0.705,1.557c0.083,0.182,0.297,0.263,0.479,0.18l0.282,0.625
		c0.081,0.183,0.297,0.262,0.479,0.18l4.812-2.181c0.184-0.082,0.264-0.296,0.183-0.479l-0.285-0.625
		c0.184-0.083,0.264-0.297,0.181-0.479l-0.706-1.557c-0.083-0.183-0.295-0.263-0.479-0.18l-5.473,2.479
		C541.067,54.099,540.985,54.312,541.069,54.495"/>
</g>
<g>
	<polygon fill="#6D6E70" points="499.399,67.15 499.399,67.15 500.599,66.937 500.106,67.025 	"/>
	<path fill="#FFFFFF" d="M500.245,66.85l-0.492,0.087L500.245,66.85z"/>
	<polygon fill="#6D6E70" points="499.647,67.15 499.647,67.15 500.353,67.025 	"/>
	<polygon fill="#F05A28" points="488.677,44.715 488.677,44.715 490.368,44.417 490.368,44.417 485.79,45.227 486.88,51.38 
		485.79,45.227 	"/>
	<path fill="#FFFFFF" d="M488.677,44.715l1.691-0.299L488.677,44.715z"/>
	<polygon fill="#F05A28" points="489.765,67.661 486.88,51.38 489.765,67.661 492.649,67.15 	"/>
	<path fill="#F05A28" d="M502.577,42.252l-12.209,2.164l-1.691,0.299l-2.887,0.512l1.09,6.153l2.885,16.281l2.886-0.511l0.707-0.125
		l0.985-0.175l12.209-2.163L502.577,42.252z M492.442,65.98l-1.714,0.304l-3.562-20.095l1.715-0.304l0.523-0.093l3.561,20.095
		L492.442,65.98z M498.987,57.778l-2.052,0.364l-0.391-2.193l-2.191,0.388l-0.364-2.052l2.192-0.389l-0.387-2.193l2.051-0.364
		l0.39,2.193l2.192-0.389l0.363,2.053l-2.193,0.389L498.987,57.778z"/>
	<path fill="#F05A28" d="M507.776,48.84c-0.324-0.58-0.892-0.904-1.384-0.84l-0.168-0.306c-0.086-0.154-0.28-0.209-0.436-0.125
		c-0.152,0.086-0.209,0.282-0.123,0.436l0.17,0.305c-0.313,0.384-0.34,1.037-0.018,1.617l1.668,3.732l4.543,7.436
		c0.395,0.71,1.153,1.046,1.688,0.749c0.533-0.297,0.65-1.12,0.259-1.829l-3.914-7.788L507.776,48.84z M506.333,49.698l-0.01-0.022
		l-0.013-0.021c-0.256-0.457-0.188-0.94,0.043-1.068c0.23-0.127,0.677,0.071,0.931,0.527l0.012,0.021l0.014,0.021l1.945,2.879
		l-1.506,0.836L506.333,49.698z"/>
</g>
<path fill="#F05A28" d="M223.232,51.173h-2.834v2.833h-2.649v-2.833h-2.835v-2.651h2.835v-2.833h2.649v2.833h2.834V51.173
	 M219.074,43.803c-5.786,0-10.754,3.05-12.156,4.934l2.871,8.433c5.024-1.704,13.545-1.704,18.568,0l2.871-8.433
	C229.827,46.853,224.86,43.803,219.074,43.803"/>
<g>
	<path fill="#F05A28" d="M300.193,50.061c-0.447,0.446-1.169,0.446-1.616,0c-0.447-0.447-0.447-1.171,0-1.617
		c0.446-0.445,1.169-0.445,1.616,0C300.639,48.89,300.639,49.613,300.193,50.061 M303.101,52.969c-0.445,0.446-1.169,0.447-1.615,0
		c-0.445-0.446-0.445-1.17,0-1.616c0.446-0.446,1.168-0.446,1.615,0C303.548,51.799,303.548,52.523,303.101,52.969 M297.284,52.969
		c-0.447,0.446-1.169,0.447-1.616,0c-0.446-0.446-0.446-1.17,0-1.616c0.447-0.446,1.169-0.446,1.616,0
		C297.729,51.799,297.728,52.523,297.284,52.969 M300.192,55.877c-0.446,0.448-1.168,0.448-1.615,0c-0.447-0.446-0.445-1.17,0-1.616
		c0.446-0.446,1.169-0.446,1.616,0C300.639,54.708,300.639,55.432,300.192,55.877 M291.457,44.233
		c-1.821,1.822-2.213,4.384-0.873,5.725c0,0,9.665,9.664,11.003,11.004c1.341,1.339,3.903,0.949,5.725-0.875
		c1.822-1.822,2.215-4.385,0.874-5.724c0,0-9.664-9.664-11.003-11.003C295.841,42.021,293.279,42.411,291.457,44.233"/>
	<path fill="#F05A28" d="M301.586,43.359c0,0-0.609,0.61-1.543,1.544l0.659,0.659l1.543-1.544c0.958-0.958,2.978-0.557,4.407,0.874
		c1.432,1.431,1.831,3.449,0.874,4.407l-1.544,1.543l0.659,0.66c0.732-0.733,1.289-1.29,1.543-1.545
		c1.341-1.34,0.949-3.902-0.874-5.724C305.49,42.411,302.927,42.019,301.586,43.359"/>
	<path fill="#F05A28" d="M298.067,58.76l-1.544,1.543c-0.959,0.958-2.977,0.558-4.406-0.873c-1.432-1.431-1.832-3.449-0.875-4.407
		l1.545-1.543l-0.66-0.659c-0.731,0.733-1.289,1.288-1.543,1.543c-1.34,1.339-0.948,3.903,0.873,5.724
		c1.822,1.823,4.387,2.214,5.726,0.875c0,0,0.61-0.61,1.543-1.544L298.067,58.76"/>
</g>
<g>
	<path fill="#F05A28" d="M348.655,53.123l-2.032-1.274c-1.064-0.667-2.16-1.196-3.093-1.457l-1.214-0.339
		c1.023-0.75,1.689-1.958,1.689-3.324c0-2.278-1.845-4.125-4.125-4.125c-2.278,0-4.124,1.847-4.124,4.125
		c0,1.366,0.667,2.574,1.691,3.324l-1.215,0.339c-0.933,0.261-2.028,0.79-3.093,1.457l-2.032,1.274
		c-0.623,0.392-0.811,1.214-0.421,1.837c0.253,0.403,0.688,0.623,1.13,0.623c0.243,0,0.488-0.065,0.708-0.203l2.03-1.274
		c0.459-0.288,0.952-0.534,1.439-0.75c-0.102,0.551-0.151,1.402-0.151,2.005h8.076c0-0.604-0.05-1.455-0.15-2.005
		c0.486,0.215,0.98,0.462,1.438,0.75l2.031,1.274c0.221,0.138,0.465,0.203,0.707,0.203c0.442,0,0.876-0.22,1.129-0.623
		C349.466,54.337,349.278,53.515,348.655,53.123"/>
	<path fill="#F05A28" d="M332.013,65.022c-0.626-0.626-0.626-1.643,0-2.27l3.262-3.26c0.626-0.626,1.642-0.626,2.269,0
		c0.628,0.627,0.628,1.642,0,2.27l-3.259,3.26C333.657,65.648,332.641,65.648,332.013,65.022"/>
	<path fill="#F05A28" d="M347.75,65.022c0.627-0.626,0.627-1.643,0-2.27l-3.261-3.26c-0.626-0.626-1.642-0.626-2.268,0
		c-0.627,0.627-0.627,1.642-0.001,2.27l3.259,3.26C346.106,65.648,347.123,65.648,347.75,65.022"/>
	<path fill="#F05A28" d="M341.555,58.826c0.657-0.657,1.586-0.876,2.429-0.664c0.549-0.624,0.55-1.858,0.55-1.858h-9.303
		c0,0,0.001,1.234,0.551,1.858c0.841-0.212,1.771,0.006,2.428,0.664c0.783,0.784,0.946,1.954,0.493,2.901
		c0.153,0.067,0.565,0.215,1.181,0.215c0.613,0,1.024-0.148,1.18-0.215C340.608,60.779,340.771,59.609,341.555,58.826"/>
</g>
<g>
	<path fill="#6D6E70" d="M619.041,43.117c-6.838,0-12.381,4.29-12.381,9.582c0,3.396,2.287,6.377,5.729,8.079
		c-0.125,1-0.199,1.895-0.283,3.202c-0.029,0.42,0.5,0.625,0.787,0.311c1.018-1.112,1.865-1.795,3.148-2.296
		c0.959,0.186,1.965,0.285,3,0.285c6.838,0,12.379-4.289,12.379-9.581S625.879,43.117,619.041,43.117 M623.648,54.025h-2.836v2.835
		h-2.654v-2.835h-2.834v-2.653h2.834v-2.836h2.654v2.836h2.836V54.025z"/>
</g>
<g>
	<path fill="#6D6E70" d="M668.773,53.123l-2.032-1.274c-1.063-0.667-2.16-1.196-3.093-1.457l-1.214-0.339
		c1.023-0.75,1.689-1.958,1.689-3.324c0-2.278-1.846-4.125-4.125-4.125c-2.278,0-4.125,1.847-4.125,4.125
		c0,1.366,0.668,2.574,1.691,3.324l-1.215,0.339c-0.934,0.261-2.027,0.79-3.093,1.457l-2.032,1.274
		c-0.623,0.392-0.811,1.214-0.421,1.837c0.253,0.403,0.688,0.623,1.13,0.623c0.243,0,0.488-0.065,0.708-0.203l2.03-1.274
		c0.459-0.288,0.951-0.534,1.439-0.75c-0.103,0.551-0.152,1.402-0.152,2.005h8.076c0-0.604-0.049-1.455-0.149-2.005
		c0.485,0.215,0.979,0.462,1.438,0.75l2.03,1.274c0.222,0.138,0.466,0.203,0.707,0.203c0.442,0,0.876-0.22,1.13-0.623
		C669.585,54.337,669.396,53.515,668.773,53.123"/>
	<path fill="#6D6E70" d="M652.132,65.022c-0.626-0.626-0.626-1.643,0-2.27l3.262-3.26c0.626-0.626,1.643-0.626,2.27,0
		c0.627,0.627,0.627,1.642,0,2.27l-3.26,3.26C653.776,65.648,652.76,65.648,652.132,65.022"/>
	<path fill="#6D6E70" d="M667.868,65.022c0.627-0.626,0.627-1.643,0-2.27l-3.26-3.26c-0.627-0.626-1.643-0.626-2.269,0
		c-0.628,0.627-0.628,1.642-0.001,2.27l3.259,3.26C666.225,65.648,667.241,65.648,667.868,65.022"/>
	<path fill="#6D6E70" d="M661.674,58.826c0.657-0.657,1.586-0.876,2.429-0.664c0.549-0.624,0.551-1.858,0.551-1.858h-9.304
		c0,0,0.001,1.234,0.551,1.858c0.841-0.212,1.771,0.006,2.429,0.664c0.783,0.784,0.945,1.954,0.492,2.901
		c0.153,0.067,0.565,0.215,1.182,0.215c0.613,0,1.023-0.148,1.18-0.215C660.727,60.779,660.89,59.609,661.674,58.826"/>
</g>
<g>
	<path fill="#6D6E70" d="M698.641,66.308c-0.6,0-1.086-0.485-1.086-1.085c0-0.599,0.486-1.084,1.086-1.084s1.086,0.485,1.086,1.084
		S699.24,66.308,698.641,66.308 M708.262,55.674l-8.32,3.771c0.289,0.637,1.113,0.885,1.842,0.556l1.271-0.577
		c-0.787,0.855-2.223,1.952-4.414,1.952c-1.748,0-3.418-1.13-3.893-2.632c-1.1-3.486,1.695-6.524,3.098-7.778
		c0.229,0.499,0.518,1.135,0.943,2.08l5.42-2.457c-1.057-2.33-1.27-2.803-1.771-3.913c-0.475-1.043-1.518-1.903-2.326-2.333
		l-0.816-1.803c-0.084-0.183-0.297-0.263-0.479-0.18l-0.439,0.199l-0.33-0.73c-0.057-0.127-0.209-0.184-0.336-0.125l-1.316,0.597
		c-0.127,0.057-0.186,0.207-0.127,0.335l0.332,0.73l-0.441,0.199c-0.18,0.083-0.26,0.296-0.178,0.478l0.816,1.804
		c-0.211,0.892-0.252,2.244,0.221,3.287c0.059,0.126,0.109,0.243,0.162,0.357c-1.771,1.05-6.918,4.643-5.189,10.125
		c0.641,2.031,2.381,3.64,4.482,4.313l-1.223,2.425h-0.422c-0.799,0-1.447,0.648-1.447,1.448h10.523
		c0-0.799-0.648-1.448-1.449-1.448h-0.422l-1.25-2.49c1.842-0.668,4.176-2.334,5.164-5.75l1.52-0.688
		C708.193,57.096,708.551,56.312,708.262,55.674"/>
	<path fill="#6D6E70" d="M699.02,54.495l0.705,1.557c0.082,0.182,0.297,0.263,0.479,0.18l0.283,0.625
		c0.08,0.183,0.297,0.262,0.479,0.18l4.812-2.181c0.184-0.082,0.264-0.296,0.182-0.479l-0.285-0.625
		c0.184-0.083,0.264-0.297,0.182-0.479l-0.707-1.557c-0.082-0.183-0.295-0.263-0.479-0.18l-5.473,2.479
		C699.018,54.099,698.936,54.312,699.02,54.495"/>
</g>
<g>
	<path fill="#6D6E70" d="M579.094,50.061c-0.447,0.446-1.169,0.446-1.615,0c-0.447-0.447-0.447-1.171,0-1.617
		c0.445-0.445,1.168-0.445,1.615,0C579.54,48.89,579.54,49.613,579.094,50.061 M582.002,52.969c-0.445,0.446-1.169,0.447-1.615,0
		c-0.445-0.446-0.445-1.17,0-1.616c0.446-0.446,1.168-0.446,1.615,0S582.449,52.523,582.002,52.969 M576.186,52.969
		c-0.447,0.446-1.17,0.447-1.617,0c-0.445-0.446-0.445-1.17,0-1.616c0.447-0.446,1.17-0.446,1.617,0
		C576.63,51.799,576.629,52.523,576.186,52.969 M579.093,55.877c-0.446,0.448-1.168,0.448-1.614,0c-0.447-0.446-0.445-1.17,0-1.616
		c0.445-0.446,1.168-0.446,1.615,0C579.54,54.708,579.54,55.432,579.093,55.877 M570.357,44.233
		c-1.82,1.822-2.213,4.384-0.873,5.725c0,0,9.666,9.664,11.004,11.004c1.341,1.339,3.902,0.949,5.725-0.875
		c1.822-1.822,2.215-4.385,0.874-5.724c0,0-9.664-9.664-11.003-11.003C574.742,42.021,572.18,42.411,570.357,44.233"/>
	<path fill="#6D6E70" d="M580.486,43.359c0,0-0.608,0.61-1.543,1.544l0.66,0.659l1.543-1.544c0.957-0.958,2.978-0.557,4.406,0.874
		c1.432,1.431,1.831,3.449,0.874,4.407l-1.544,1.543l0.659,0.66c0.731-0.733,1.289-1.29,1.543-1.545
		c1.341-1.34,0.948-3.902-0.874-5.724C584.391,42.411,581.828,42.019,580.486,43.359"/>
	<path fill="#6D6E70" d="M576.968,58.76l-1.544,1.543c-0.959,0.958-2.977,0.558-4.406-0.873c-1.432-1.431-1.832-3.449-0.875-4.407
		l1.545-1.543l-0.66-0.659c-0.73,0.733-1.289,1.288-1.543,1.543c-1.34,1.339-0.947,3.903,0.873,5.724
		c1.822,1.823,4.387,2.214,5.727,0.875c0,0,0.609-0.61,1.543-1.544L576.968,58.76"/>
</g>
</svg>
